<svg data-prefix="fas" data-icon="grid-2" role="img" viewBox="0 0 448 512" aria-hidden="true" class="svg-inline--fa fa-grid-2 fa-lg"><path fill="currentColor" d="M192 80c0-26.5-21.5-48-48-48L48 32C21.5 32 0 53.5 0 80l0 96c0 26.5 21.5 48 48 48l96 0c26.5 0 48-21.5 48-48l0-96zm0 256c0-26.5-21.5-48-48-48l-96 0c-26.5 0-48 21.5-48 48l0 96c0 26.5 21.5 48 48 48l96 0c26.5 0 48-21.5 48-48l0-96zM256 80l0 96c0 26.5 21.5 48 48 48l96 0c26.5 0 48-21.5 48-48l0-96c0-26.5-21.5-48-48-48l-96 0c-26.5 0-48 21.5-48 48zM448 336c0-26.5-21.5-48-48-48l-96 0c-26.5 0-48 21.5-48 48l0 96c0 26.5 21.5 48 48 48l96 0c26.5 0 48-21.5 48-48l0-96z" class=""></path></svg>